<?xml version="1.0"?>
<svg viewBox="-10 18 240 240" version="1.1" xmlns="http://www.w3.org/2000/svg"
     xmlns:svg="http://www.w3.org/2000/svg">
    <circle r="120" cx="110" cy="138" fill="#1bf4ff"/>
    <path fill="white" stroke-linecap="round" stroke-linejoin="round" d="M 7.6806427,138.25157 C -0.22202106,127.385 23.599605,95.843439 52.592622,95.951721 81.585639,96.060003 116.54866,130.51109 160.01339,152.33274 176.83305,160.77712 105.24574,174.62925 78.145092,185.30526 72.101663,187.686 61.393975,157.25833 57.604818,144.97213 30.545809,142.25737 16.928229,140.11465 7.6806427,138.25157 Z"/>
    <path fill="white" d="m 12.377482,144.76033 40.323372,4.16035 2.560214,8.81488 -21.229999,3.16265 -13.972945,7.86413 C 13.970147,164.28943 9.982867,157.71583 12.377482,144.76033 Z"/>
    <path stroke="white" stroke-linecap="round" fill="none" stroke-width="5" d="m 135.28124,129.53282 c 26.48549,-8.7535 24.10928,10.43158 45.42991,1.23014"/>
    <path stroke="white" stroke-linecap="round" fill="none" stroke-width="5" d="m 165.57579,146.53171 c 26.48549,-8.7535 24.10928,10.43158 45.42991,1.23014"/>
</svg>
