<?xml version="1.0"?>
<svg viewBox="-5 18 240 240" version="1.1" xmlns="http://www.w3.org/2000/svg"
     xmlns:svg="http://www.w3.org/2000/svg">
    <circle r="120" cx="115" cy="138" fill="#1bf4ff"/>
    <path fill="white" stroke-linecap="round" stroke-linejoin="round" d="M 25.695624,132.62234 C 16.137113,119.4789 44.950088,81.328424 80.018017,81.459394 c 35.067933,0.130971 72.345433,29.105226 109.883333,67.526366 15.90826,16.28256 -46.1978,27.63648 -78.97685,40.54944 -7.30971,2.87958 -20.26098,-33.92361 -24.844081,-48.78414 -32.728687,-3.28358 -49.199561,-5.87527 -60.384795,-8.12872 z"/>
    <path fill="white" d="m 30.121006,139.46963 50.823371,5.24368 3.226881,11.11023 -26.758182,3.98619 -17.611428,9.91191 c -7.673255,-5.63763 -12.698802,-13.92296 -9.680642,-30.25201 z"/>
    <path stroke="#fffc" stroke-linecap="round" fill="none" stroke-width="5" d="m 172.24885,121.75963 c 18.39375,-4.97174 16.74351,5.92481 31.55036,0.69867"/>
    <path stroke="#fffc" stroke-linecap="round" fill="none" stroke-width="5" d="m 188.63004,136.98178 c 18.39375,-4.97174 16.74351,5.92481 31.55036,0.69867"/>
</svg>
