<?xml version="1.0"?>
<svg version="1.1" viewBox="1220 990 600 600" xmlns="http://www.w3.org/2000/svg"
     xmlns:svg="http://www.w3.org/2000/svg">
    <defs>
        <path id="cup" d="m 1393.026,1307.0763 c 0.021,-6.2852 5.2216,-16.594 9.3115,-16.5618 18.4758,0.1451 217.2144,-0.054 222.1862,0.7367 52.8591,8.4063 70.8306,120.7691 -31.1284,111.2303 -2.0148,-0.1885 -2.3296,9.1765 -22.2399,31.8639 -0.8411,0.9584 29.1871,0.097 30.1663,0.5368 14.6769,6.586 15.6048,28.0546 -1.9502,33.4023 -2.5421,0.7744 -179.0779,-0.7686 -180.6466,-0.8454 -13.7097,-0.6709 -17.6992,-29.4983 1.4007,-32.5569 2.7831,-0.4457 15.5002,0.9718 13.6478,-0.6802 -24.2566,-21.6323 -40.8408,-98.6912 -40.7474,-127.1257 z"/>

        <mask id="cup-mask" mask-type="lumanance">
            <use href="#cup" fill="white"/>
            <path fill="black" d="m 1609.4727,1327.2462 c 0,0 26.3234,-6.1178 25.293,21.4843 -0.8855,23.7198 -31.9653,20.3031 -31.1524,19.5313 2.9625,-2.8128 6.525,-30.345 5.8594,-41.0156
z"/>
        </mask>
    </defs>
    <circle r="300" cx="1520" cy="1290" fill="#ad6500"/>
    <use href="#cup" fill="white" mask="url(#cup-mask)"/>

    <path fill="none" stroke="white" stroke-width="12" stroke-linecap="round" d="m 1473.1099,1246.9466 c -21.4896,2.0764 -33.1181,-52.8686 -16.0111,-68.7334 36.4473,-33.8009 6.4373,-57.5313 23.0748,-57.1767 17.4096,0.3711 25.0426,38.5577 22.604,60.8262 -1.9152,17.4888 -21.6933,23.4347 -27.3132,39.537 -2.7286,7.8181 4.2663,24.9073 -2.3545,25.5469 z"/>
    <path fill="none" stroke="white" stroke-width="12" d="m 1554.6155,1229.2879 c -17.7378,2.0423 -27.336,-52.0003 -13.2158,-67.6047 30.0842,-33.2456 5.3135,-56.5863 19.0464,-56.2374 14.3701,0.365 20.6704,37.9244 18.6576,59.8271 -1.5808,17.2016 -17.9059,23.0498 -22.5447,38.8876 -2.2521,7.6898 3.5215,24.4983 -1.9435,25.1274 z"/>
</svg>
