<?xml version="1.0"?>
<svg fill="#000000" version="1.1" viewBox="-64 -74 660 660" xmlns="http://www.w3.org/2000/svg"
     xmlns:svg="http://www.w3.org/2000/svg">
    <circle r="330" cx="266" cy="256" fill="#1292cd"/>
    <path fill="white" d="M509.5,292.634l-6.033-6.033v-5v-8.533V256v-8.533V136.533c0-4.71-3.814-8.533-8.533-8.533h-384 c-2.782,0-5.393,1.357-6.989,3.644l-59.068,84.378c-9.873,8.192-19.251,17.894-26.069,31.445l-6.443,17.067 c-1.749,6.537-3.063,13.688-3.635,21.862L2.5,292.634c-1.604,1.596-2.5,3.772-2.5,6.033v17.067c0,2.261,0.896,4.437,2.5,6.033 l6.033,6.033v13.534c0,4.71,3.814,8.533,8.533,8.533H51.2c4.719,0,8.533-3.823,8.533-8.533c0-32.939,26.803-59.733,59.733-59.733 s59.733,26.795,59.733,59.733c0,4.71,3.814,8.533,8.533,8.533h136.533c4.719,0,8.533-3.823,8.533-8.533 c0-32.939,26.803-59.733,59.733-59.733c32.93,0,59.733,26.795,59.733,59.733c0,4.71,3.814,8.533,8.533,8.533h34.133 c4.719,0,8.533-3.823,8.533-8.533v-13.534l6.033-6.033c1.604-1.596,2.5-3.772,2.5-6.033v-17.067 C512,296.405,511.104,294.229,509.5,292.634z M187.733,204.8c0,4.71-3.814,8.533-8.533,8.533H85.333 c-3.149,0-6.042-1.732-7.526-4.506c-1.485-2.773-1.314-6.144,0.427-8.755l34.133-51.2c1.587-2.381,4.25-3.806,7.1-3.806H179.2 c4.719,0,8.533,3.823,8.533,8.533V204.8z"/>
    <circle fill="none" stroke="#eee" stroke-width="30" cx="119.46715" cy="341.50189" r="40"/>
    <circle fill="none" stroke="#eee" stroke-width="30" cx="392.74" cy="341.50189" r="40"/>
</svg>
