<?xml version="1.0"?>
<svg viewBox="-6.5 -2 65 65" version="1.1" xmlns="http://www.w3.org/2000/svg"
     xmlns:xlink="http://www.w3.org/1999/xlink">
    <path fill="#000" stroke-linejoin="round" d="M7.3,51.7 C9.5,51.7 19,49.9 27.6,41.5 C28.4,40.7 23.7,39.7 24.4,38.8 C25.2,37.9 31.5,37.2 32.2,36.3 C35,32.8 37.5,29.3 39.6,25.9 C40.2,25 33.8,26.6 34.3,25.7 C34.8,24.8 42.2,21.5 42.6,20.7 C48.5,10 50.8,1.3 49.5,0.1 C48.5,-0.9 40.4,2.2 36.5,5.4 C35.7,6 30.5,15.6 29.5,16 C28.7,16.3 29.2,10.5 32.1,7.8 C28.3,9.6 23,12.5 19.4,15.8 C19.1,16.1 18.4,24.1 18.1,24.5 C17.4,25.2 17.2,18.1 16.6,18.9 C7.6,29.9 1.2,45.1 4.8,50.6 C5.1,50.5 5.7,51.7 7.3,51.7 L7.3,51.7 Z"/>
    <path d="M-3,61.9 C-3,60.9 15.8,30.9 40.4,11.9"/> 
</svg>
