<?xml version="1.0"?>
<svg viewBox="0 0 210 297" version="1.1" xmlns="http://www.w3.org/2000/svg"
     xmlns:svg="http://www.w3.org/2000/svg">
    <defs>
        <path id="ghost-outline" stroke-linecap="round" stroke-linejoin="round" d="M 35.781306,130.15451 C 34.722874,52.889061 164.86325,46.361857 165.71217,130.8254 c 0.43905,43.68318 -0.9324,66.31276 0.22364,78.60706 0.62445,6.64087 6.81177,11.44663 3.01905,16.66067 -2.07768,2.85629 -8.27172,1.7823 -11.74074,1.11817 -3.93252,-0.75287 -7.51547,-4.26671 -10.28713,-7.15626 -2.65387,-2.76675 -4.05551,-6.94916 -4.91993,-9.16896 -0.78863,-2.02519 -1.31176,3.2343 -0.89453,5.36719 0.66247,3.38659 1.91935,7.22926 -0.44727,9.16896 -2.33196,1.91129 -7.0161,1.09407 -9.72805,-0.22363 -4.79057,-2.3277 -7.30892,-9.01817 -10.8462,-12.07619 -1.21735,-1.05241 -1.04891,3.08859 -1.11817,4.69629 -0.20126,4.67187 1.37928,6.3048 -0.67089,8.0508 -2.21989,1.89053 -6.09926,0.60378 -8.7217,-0.6709 -5.55171,-2.69851 -8.80774,-8.89688 -12.523457,-13.64162 -2.206609,-2.8177 0.223634,10.73439 0.223634,10.73439 0.08064,3.8707 -3.980868,5.44448 -6.882536,5.33924 -24.16498,-0.87645 -53.53113,-18.23797 -53.945685,-48.50044 z"/>
        <mask id="ghost-mask" mask-type="luminance">
            <use href="#ghost-outline" fill="white"/>
            <path stroke="black" stroke-width="17" stroke-linecap="round" d="M 64.855422,117.31627 56,140"/>
            <path stroke="black" stroke-linecap="round" stroke-width="17" d="M 93.906627,117.63253 86,140"/>
            <path stroke="black" stroke-linecap="round" stroke-width="12" d="m 64,166 22.36747,-2.84639"/>
        </mask>
    </defs>
    <use href="#ghost-outline" fill="black" mask="url(#ghost-mask)"/>
</svg>
