<?xml version="1.0"?>
<svg version="1.1" viewBox="-86 -56 660 660" xmlns="http://www.w3.org/2000/svg"
     xmlns:svg="http://www.w3.org/2000/svg">
    <circle r="330" cx="244" cy="274" fill="#7010b5"/>
    <path fill="#fff8" d="M245.221,105.095c35.718,0,43.116,7.398,43.116,43.116v97.011H148.211V105.095  C148.211,105.095,202.105,105.095,245.221,105.095z"/>

    <path fill="white" d="M245.221,83.537c-43.116,0-97.011,0-97.011,0v43.116h97.011c11.906,0,21.558,9.651,21.558,21.558  v97.011h43.116v-97.011C309.895,112.492,280.939,83.537,245.221,83.537z"/>
    <path fill="white" d="M256,84.448v45.112c6.438,3.73,10.779,10.675,10.779,18.651V256h43.116V148.211  C309.895,116.166,286.584,89.582,256,84.448z"/>


    <path fill="white" d="M202.105,355.705h-32.337c-4.466,0-8.084-3.62-8.084-8.084c0-4.465,3.618-8.084,8.084-8.084h32.337  c4.466,0,8.084,3.62,8.084,8.084C210.189,352.086,206.571,355.705,202.105,355.705z"/>
    <polygon fill="white" points="148.211,245.221 202.105,309.895 202.105,396.126 309.895,396.126 309.895,299.116   374.568,299.116 439.242,374.568 471.579,374.568 503.916,309.895 471.579,245.221"/>

    <circle fill="white" cx="88.926" cy="347.621" r="98"/>
    <rect x="-23" y="320.674" fill="white" stroke="#7010b5" stroke-width="6"  width="222" height="53.895"/>

    <rect x="277.558" y="266.779" fill="#fff9" width="96" height="129.347"/>
    <circle stroke="white" fill="none" stroke-width="32" cx="372" cy="392" r="40"/>

    <polygon fill="white" points="374.568,245.221 406.905,245.221 406.905,180.547 374.568,169.768  "/>
    <rect x="353.01" y="223.663" fill="white" width="75.453" height="43.116"/>
</svg>
