<?xml version="1.0"?>
<svg viewBox="0 0 210 297" version="1.1" xmlns="http://www.w3.org/2000/svg"
     xmlns:svg="http://www.w3.org/2000/svg">
    <defs>
        <path id="b1" stroke-linecap="round" d="m 36.546335,144.99731 c 8.478205,-1.98424 22.770934,0.38902 27.042027,7.97683 2.360202,4.19302 -0.577411,10.16254 -4.129851,13.40786 -1.520061,1.38865 -4.128985,-0.11195 -5.374461,1.52748 -1.471546,1.937 1.622705,3.23806 0.848601,5.54418 -1.273114,3.79272 -4.615279,8.18972 -8.146552,10.07005 -1.488783,0.79275 -3.52037,1.57327 -5.148168,1.13146 -6.143078,-1.66732 -11.515681,-6.81462 -14.48276,-12.44612 -2.263711,-4.29651 -3.235594,-9.91584 -1.58405,-14.48276 2.068162,-5.71897 5.053781,-11.34313 10.975214,-12.72898 z"/>
        <path id="b2" stroke-linecap="round" d="m 70.99946,156.36853 c 4.035099,-5.26424 17.028556,9.90033 17.028556,9.90033 4.242953,3.4786 5.214736,8.06003 4.412715,11.88038 -0.886235,4.22151 -1.410505,3.48465 -2.885237,4.46929 -1.402759,0.93658 -3.9153,-0.40426 -4.978448,0.90518 -1.759821,2.16751 1.311421,5.80037 0.226293,8.37284 -1.037346,2.45919 -3.324388,4.6734 -5.883621,5.43104 -5.136827,1.52071 -10.900358,0.47748 -15.953664,-1.30119 -4.395337,-1.54708 -14.502802,-4.20675 -12.106679,-8.20312 8.112718,-13.5308 11.684135,-20.42303 20.140085,-31.45475 z"/>
        <mask id="b1-mask" mask-type="lumanance">
            <use href="#b1" fill="white"/>
            <path fill="black" stroke-linecap="round" d="m 45.541488,155.40679 c 4.978447,2.20635 5.207645,1.71331 6.166485,3.96013 0.346938,0.81297 0.277394,2.19911 -0.509159,2.60237 -2.012369,1.03173 -4.352814,-1.47786 -6.166488,-2.82867 -0.825189,-0.61459 -2.212306,-1.30569 -2.036638,-2.3195 0.16574,-0.95651 0.312438,-2.40411 2.5458,-1.41433 z"/>
            <path fill="black" stroke-linecap="round" d="m 40.506464,164.6848 c 2.12121,0.33479 4.246178,1.57046 5.544183,3.28125 0.660807,0.87095 1.538424,2.31996 0.848598,3.16811 -0.631648,0.77662 -2.051676,0.15566 -2.998383,-0.16972 -2.255824,-0.77531 -4.91893,-1.89172 -5.883621,-4.07328 -0.230822,-0.52198 -0.158979,-1.27612 0.226292,-1.6972 0.521918,-0.57043 1.499217,-0.6297 2.262931,-0.50916 z"/>
        </mask>
        <mask id="b2-mask" mask-type="lumanance">
            <use href="#b2" fill="white"/>
            <path fill="black" stroke-linecap="round" d="m 76.826509,173.05765 c 1.662115,0.55444 3.622799,1.35051 4.356142,2.94181 0.349514,0.75842 0.285929,1.8778 -0.282866,2.48922 -0.627281,0.67429 -1.823859,0.73956 -2.715519,0.50916 -1.919269,-0.49594 -3.673425,-2.02881 -4.582436,-3.79041 -0.355493,-0.68892 -0.711529,-1.76504 -0.169719,-2.3195 0.791769,-0.81026 2.319731,-0.18876 3.394398,0.16972 z"/>
            <path fill="black" stroke-linecap="round" d="m 72.017781,182.44881 c 1.574388,0.53863 3.162734,1.62156 3.903554,3.11153 0.335932,0.67564 0.521947,1.66899 0.05657,2.26293 -0.595447,0.75994 -1.877172,0.78581 -2.828663,0.62231 -2.320715,-0.39878 -5.198031,-1.51871 -5.996768,-3.73383 -0.262964,-0.72927 0.109669,-1.74877 0.735454,-2.20636 1.111335,-0.81263 2.82723,-0.50223 4.129853,-0.0566 z"/>
        </mask>
    </defs>
    <path fill="currentColor" stroke-width="2.5" stroke-linecap="round" stroke-linejoin="bevel" d="m 13.351293,141.88577 c 8.826033,-20.79354 50.373771,-0.26706 89.838367,-70.603444 15.86232,-28.270868 102.20125,47.858024 51.14223,81.012934 -18.32271,11.89776 -44.08458,11.96573 -70.37715,-0.22629 -18.391844,-8.52841 -42.607296,-20.34585 -56.573276,-8.14656 -9.090285,7.94037 -8.315214,24.41643 -0.905171,33.94397 15.43283,19.84292 64.869833,34.81096 74.224137,19.91379 9.4606,-15.06646 -13.004785,-40.46007 -0.45259,-35.52801 40.63641,15.96701 91.57897,-15.5381 70.60345,-55.8944 -10.45654,-20.118096 33.62809,22.2847 25.79742,43.22198 -11.33855,30.31647 -34.44245,17.09359 -47.74785,25.57112 -12.23571,7.79599 -18.23611,23.89092 -31.68104,31.68104 -15.508,8.98547 -39.012533,7.885 -55.668096,3.39439 -22.161068,-5.97498 -64.4385796,-30.08454 -48.200431,-68.34052 z"/>
    <use fill="currentColor" href="#b1" mask="url(#b1-mask)"/>
    <use fill="currentColor" href="#b2" mask="url(#b2-mask)"/>
</svg>
